<svg width="12" height="16" viewBox="0 0 12 16" fill="none" xmlns="http://www.w3.org/2000/svg">
<path d="M11.274 6.515C11.5095 4.943 10.3118 4.09775 8.67525 3.53375L9.20625 1.40375L7.91025 1.08125L7.39275 3.155C7.05225 3.0695 6.70275 2.99 6.354 2.9105L6.87525 0.82325L5.57925 0.5L5.04825 2.62925C4.76625 2.56475 4.48875 2.50175 4.22025 2.43425L4.22175 2.4275L2.43375 1.98125L2.08875 3.36575C2.08875 3.36575 3.051 3.58625 3.03075 3.59975C3.55575 3.731 3.65025 4.07825 3.6345 4.35425L3.03 6.7805C3.066 6.7895 3.1125 6.803 3.165 6.82325L3.02775 6.7895L2.18025 10.1885C2.11575 10.3475 1.953 10.5867 1.5855 10.496C1.599 10.5147 0.643501 10.2612 0.643501 10.2612L0 11.7448L1.6875 12.1655C2.001 12.2443 2.3085 12.3267 2.61075 12.404L2.0745 14.558L3.36975 14.8805L3.90075 12.7505C4.25475 12.8457 4.59825 12.9342 4.93425 13.0182L4.40475 15.1392L5.70075 15.4618L6.237 13.3123C8.448 13.7308 10.11 13.562 10.8098 11.5625C11.3738 9.953 10.782 9.02375 9.61875 8.4185C10.4663 8.2235 11.1038 7.66625 11.274 6.515ZM8.3115 10.6685C7.91175 12.2788 5.2005 11.408 4.3215 11.1898L5.034 8.336C5.913 8.55575 8.73075 8.99 8.3115 10.6685ZM8.71275 6.49175C8.3475 7.9565 6.0915 7.21175 5.36025 7.0295L6.00525 4.442C6.7365 4.62425 9.09375 4.964 8.71275 6.49175Z" fill="white"/>
</svg>
