<svg width="11" height="16" viewBox="0 0 11 16" fill="none" xmlns="http://www.w3.org/2000/svg">
<path fill-rule="evenodd" clip-rule="evenodd" d="M10.25 10.3655C10.25 12.293 8.6855 13.5725 6.3755 13.7653V15.5H4.793V13.748C3.23051 13.5718 1.74596 12.9717 0.5 12.0125L1.664 10.418C2.70125 11.2243 3.683 11.75 4.86575 11.9255V8.4905C2.21 7.8245 0.97325 6.86075 0.97325 4.88075C0.97325 2.9885 2.519 1.69175 4.793 1.51625V0.5H6.3755V1.5515C7.61234 1.68888 8.79155 2.14815 9.7955 2.8835L8.77625 4.5305C7.976 3.95225 7.15775 3.584 6.30275 3.40925V6.7385C9.068 7.4045 10.25 8.47325 10.25 10.3655ZM4.865 6.37025V3.28625C3.71975 3.374 3.11975 3.9875 3.11975 4.7585C3.11975 5.4935 3.46475 5.9675 4.86575 6.371L4.865 6.37025ZM8.1035 10.4877C8.1035 9.70025 7.721 9.227 6.30275 8.8235V11.996C7.44875 11.9075 8.1035 11.3293 8.1035 10.4885V10.4877Z" fill="white"/>
</svg>
